<mxfile host="app.diagrams.net" modified="2023-08-30T04:52:37.701Z" agent="Mozilla/5.0 (Macintosh; Intel Mac OS X 10_15_7) AppleWebKit/537.36 (KHTML, like Gecko) Chrome/116.0.0.0 Safari/537.36" etag="AMATkwQCGLTUw9CNsZoM" version="21.6.9" type="github">
  <diagram id="R2lEEEUBdFMjLlhIrx00" name="Page-1">
    <mxGraphModel dx="6476" dy="4268" grid="1" gridSize="10" guides="1" tooltips="1" connect="1" arrows="1" fold="1" page="1" pageScale="1" pageWidth="850" pageHeight="1100" math="0" shadow="0" extFonts="Permanent Marker^https://fonts.googleapis.com/css?family=Permanent+Marker">
      <root>
        <mxCell id="0" />
        <mxCell id="1" parent="0" />
        <mxCell id="nNn-SHrqSjIZFw0SR9sd-1" style="rounded=0;orthogonalLoop=1;jettySize=auto;html=1;entryX=0;entryY=0.5;entryDx=0;entryDy=0;endArrow=none;endFill=0;" edge="1" parent="1" source="nNn-SHrqSjIZFw0SR9sd-5" target="nNn-SHrqSjIZFw0SR9sd-34">
          <mxGeometry relative="1" as="geometry" />
        </mxCell>
        <mxCell id="nNn-SHrqSjIZFw0SR9sd-2" style="rounded=0;orthogonalLoop=1;jettySize=auto;html=1;endArrow=none;endFill=0;" edge="1" parent="1" source="nNn-SHrqSjIZFw0SR9sd-5" target="nNn-SHrqSjIZFw0SR9sd-43">
          <mxGeometry relative="1" as="geometry" />
        </mxCell>
        <mxCell id="nNn-SHrqSjIZFw0SR9sd-3" style="rounded=0;orthogonalLoop=1;jettySize=auto;html=1;endArrow=none;endFill=0;entryX=0.5;entryY=0;entryDx=0;entryDy=0;exitX=0.25;exitY=1;exitDx=0;exitDy=0;" edge="1" parent="1" source="nNn-SHrqSjIZFw0SR9sd-5" target="nNn-SHrqSjIZFw0SR9sd-67">
          <mxGeometry relative="1" as="geometry">
            <Array as="points">
              <mxPoint x="-397" y="-350" />
            </Array>
          </mxGeometry>
        </mxCell>
        <mxCell id="nNn-SHrqSjIZFw0SR9sd-4" style="rounded=0;orthogonalLoop=1;jettySize=auto;html=1;endArrow=none;endFill=0;" edge="1" parent="1" source="nNn-SHrqSjIZFw0SR9sd-5" target="nNn-SHrqSjIZFw0SR9sd-115">
          <mxGeometry relative="1" as="geometry" />
        </mxCell>
        <mxCell id="nNn-SHrqSjIZFw0SR9sd-5" value="Users" style="rounded=1;whiteSpace=wrap;html=1;" vertex="1" parent="1">
          <mxGeometry x="-427.5" y="-610" width="120" height="60" as="geometry" />
        </mxCell>
        <mxCell id="nNn-SHrqSjIZFw0SR9sd-6" style="rounded=0;orthogonalLoop=1;jettySize=auto;html=1;endArrow=none;endFill=0;" edge="1" parent="1" source="nNn-SHrqSjIZFw0SR9sd-9" target="nNn-SHrqSjIZFw0SR9sd-43">
          <mxGeometry relative="1" as="geometry" />
        </mxCell>
        <mxCell id="nNn-SHrqSjIZFw0SR9sd-7" style="rounded=0;orthogonalLoop=1;jettySize=auto;html=1;entryX=0.5;entryY=0;entryDx=0;entryDy=0;endArrow=none;endFill=0;" edge="1" parent="1" target="nNn-SHrqSjIZFw0SR9sd-53">
          <mxGeometry relative="1" as="geometry">
            <mxPoint x="-115" y="-180" as="sourcePoint" />
          </mxGeometry>
        </mxCell>
        <mxCell id="nNn-SHrqSjIZFw0SR9sd-8" style="rounded=0;orthogonalLoop=1;jettySize=auto;html=1;entryX=0.5;entryY=0;entryDx=0;entryDy=0;" edge="1" parent="1" source="nNn-SHrqSjIZFw0SR9sd-9" target="nNn-SHrqSjIZFw0SR9sd-69">
          <mxGeometry relative="1" as="geometry" />
        </mxCell>
        <mxCell id="nNn-SHrqSjIZFw0SR9sd-9" value="Konsuls" style="rounded=1;whiteSpace=wrap;html=1;" vertex="1" parent="1">
          <mxGeometry x="-221.25" y="-230" width="120" height="60" as="geometry" />
        </mxCell>
        <mxCell id="nNn-SHrqSjIZFw0SR9sd-10" value="" style="rounded=0;orthogonalLoop=1;jettySize=auto;html=1;endArrow=none;endFill=0;exitX=0.25;exitY=1;exitDx=0;exitDy=0;" edge="1" parent="1" source="nNn-SHrqSjIZFw0SR9sd-14" target="nNn-SHrqSjIZFw0SR9sd-64">
          <mxGeometry relative="1" as="geometry" />
        </mxCell>
        <mxCell id="nNn-SHrqSjIZFw0SR9sd-11" style="rounded=0;orthogonalLoop=1;jettySize=auto;html=1;exitX=0.5;exitY=1;exitDx=0;exitDy=0;entryX=0.5;entryY=0;entryDx=0;entryDy=0;endArrow=none;endFill=0;" edge="1" parent="1" source="nNn-SHrqSjIZFw0SR9sd-14" target="nNn-SHrqSjIZFw0SR9sd-65">
          <mxGeometry relative="1" as="geometry" />
        </mxCell>
        <mxCell id="nNn-SHrqSjIZFw0SR9sd-12" style="rounded=0;orthogonalLoop=1;jettySize=auto;html=1;exitX=1;exitY=1;exitDx=0;exitDy=0;entryX=0.5;entryY=0;entryDx=0;entryDy=0;endArrow=none;endFill=0;" edge="1" parent="1" source="nNn-SHrqSjIZFw0SR9sd-14" target="nNn-SHrqSjIZFw0SR9sd-63">
          <mxGeometry relative="1" as="geometry" />
        </mxCell>
        <mxCell id="nNn-SHrqSjIZFw0SR9sd-13" style="rounded=0;orthogonalLoop=1;jettySize=auto;html=1;exitX=1;exitY=0.75;exitDx=0;exitDy=0;entryX=0;entryY=0;entryDx=0;entryDy=0;endArrow=none;endFill=0;" edge="1" parent="1" source="nNn-SHrqSjIZFw0SR9sd-14" target="nNn-SHrqSjIZFw0SR9sd-141">
          <mxGeometry relative="1" as="geometry" />
        </mxCell>
        <mxCell id="nNn-SHrqSjIZFw0SR9sd-14" value="Chat" style="rounded=1;whiteSpace=wrap;html=1;" vertex="1" parent="1">
          <mxGeometry x="-604.5" y="-30" width="120" height="60" as="geometry" />
        </mxCell>
        <mxCell id="nNn-SHrqSjIZFw0SR9sd-15" style="rounded=0;orthogonalLoop=1;jettySize=auto;html=1;endArrow=none;endFill=0;" edge="1" parent="1" source="nNn-SHrqSjIZFw0SR9sd-16" target="nNn-SHrqSjIZFw0SR9sd-5">
          <mxGeometry relative="1" as="geometry" />
        </mxCell>
        <mxCell id="nNn-SHrqSjIZFw0SR9sd-16" value="&lt;div&gt;role&lt;/div&gt;" style="ellipse;whiteSpace=wrap;html=1;" vertex="1" parent="1">
          <mxGeometry x="-341.25" y="-765" width="110" height="50" as="geometry" />
        </mxCell>
        <mxCell id="nNn-SHrqSjIZFw0SR9sd-17" style="rounded=0;orthogonalLoop=1;jettySize=auto;html=1;endArrow=none;endFill=0;" edge="1" parent="1" source="nNn-SHrqSjIZFw0SR9sd-18" target="nNn-SHrqSjIZFw0SR9sd-5">
          <mxGeometry relative="1" as="geometry" />
        </mxCell>
        <mxCell id="nNn-SHrqSjIZFw0SR9sd-18" value="name" style="ellipse;whiteSpace=wrap;html=1;fontStyle=0" vertex="1" parent="1">
          <mxGeometry x="-400" y="-830" width="115" height="50" as="geometry" />
        </mxCell>
        <mxCell id="nNn-SHrqSjIZFw0SR9sd-19" style="rounded=0;orthogonalLoop=1;jettySize=auto;html=1;entryX=0.121;entryY=0.017;entryDx=0;entryDy=0;endArrow=none;endFill=0;entryPerimeter=0;" edge="1" parent="1" source="nNn-SHrqSjIZFw0SR9sd-20" target="nNn-SHrqSjIZFw0SR9sd-5">
          <mxGeometry relative="1" as="geometry" />
        </mxCell>
        <mxCell id="nNn-SHrqSjIZFw0SR9sd-20" value="place_birth" style="ellipse;whiteSpace=wrap;html=1;" vertex="1" parent="1">
          <mxGeometry x="-650" y="-850" width="105" height="50" as="geometry" />
        </mxCell>
        <mxCell id="nNn-SHrqSjIZFw0SR9sd-21" style="rounded=0;orthogonalLoop=1;jettySize=auto;html=1;entryX=0.42;entryY=-0.05;entryDx=0;entryDy=0;endArrow=none;endFill=0;entryPerimeter=0;" edge="1" parent="1" source="nNn-SHrqSjIZFw0SR9sd-22" target="nNn-SHrqSjIZFw0SR9sd-5">
          <mxGeometry relative="1" as="geometry" />
        </mxCell>
        <mxCell id="nNn-SHrqSjIZFw0SR9sd-22" value="_id" style="ellipse;whiteSpace=wrap;html=1;fontStyle=4" vertex="1" parent="1">
          <mxGeometry x="-465" y="-775" width="110" height="50" as="geometry" />
        </mxCell>
        <mxCell id="nNn-SHrqSjIZFw0SR9sd-23" style="rounded=0;orthogonalLoop=1;jettySize=auto;html=1;endArrow=none;endFill=0;" edge="1" parent="1" source="nNn-SHrqSjIZFw0SR9sd-24" target="nNn-SHrqSjIZFw0SR9sd-9">
          <mxGeometry relative="1" as="geometry">
            <mxPoint x="-161.25" y="-170" as="targetPoint" />
          </mxGeometry>
        </mxCell>
        <mxCell id="nNn-SHrqSjIZFw0SR9sd-24" value="user_id" style="ellipse;whiteSpace=wrap;html=1;" vertex="1" parent="1">
          <mxGeometry x="-355" y="-300" width="115" height="50" as="geometry" />
        </mxCell>
        <mxCell id="nNn-SHrqSjIZFw0SR9sd-25" style="rounded=0;orthogonalLoop=1;jettySize=auto;html=1;jumpStyle=arc;endArrow=none;endFill=0;" edge="1" parent="1" source="nNn-SHrqSjIZFw0SR9sd-26" target="nNn-SHrqSjIZFw0SR9sd-9">
          <mxGeometry relative="1" as="geometry" />
        </mxCell>
        <mxCell id="nNn-SHrqSjIZFw0SR9sd-26" value="psikolog_id" style="ellipse;whiteSpace=wrap;html=1;" vertex="1" parent="1">
          <mxGeometry x="-325" y="-380" width="105" height="50" as="geometry" />
        </mxCell>
        <mxCell id="nNn-SHrqSjIZFw0SR9sd-27" style="rounded=0;orthogonalLoop=1;jettySize=auto;html=1;endArrow=none;endFill=0;" edge="1" parent="1" source="nNn-SHrqSjIZFw0SR9sd-30" target="nNn-SHrqSjIZFw0SR9sd-45">
          <mxGeometry relative="1" as="geometry" />
        </mxCell>
        <mxCell id="nNn-SHrqSjIZFw0SR9sd-28" style="rounded=0;orthogonalLoop=1;jettySize=auto;html=1;exitX=1;exitY=0.75;exitDx=0;exitDy=0;entryX=0;entryY=0.5;entryDx=0;entryDy=0;endArrow=none;endFill=0;" edge="1" parent="1" source="nNn-SHrqSjIZFw0SR9sd-30" target="nNn-SHrqSjIZFw0SR9sd-118">
          <mxGeometry relative="1" as="geometry" />
        </mxCell>
        <mxCell id="nNn-SHrqSjIZFw0SR9sd-29" style="rounded=0;orthogonalLoop=1;jettySize=auto;html=1;exitX=0.75;exitY=1;exitDx=0;exitDy=0;entryX=0;entryY=0;entryDx=0;entryDy=0;endArrow=none;endFill=0;" edge="1" parent="1" source="nNn-SHrqSjIZFw0SR9sd-30" target="nNn-SHrqSjIZFw0SR9sd-119">
          <mxGeometry relative="1" as="geometry" />
        </mxCell>
        <mxCell id="nNn-SHrqSjIZFw0SR9sd-30" value="Psikologs" style="rounded=1;whiteSpace=wrap;html=1;" vertex="1" parent="1">
          <mxGeometry x="-10" y="-610" width="120" height="60" as="geometry" />
        </mxCell>
        <mxCell id="nNn-SHrqSjIZFw0SR9sd-31" style="rounded=0;orthogonalLoop=1;jettySize=auto;html=1;entryX=0.25;entryY=0;entryDx=0;entryDy=0;endArrow=none;endFill=0;" edge="1" parent="1" source="nNn-SHrqSjIZFw0SR9sd-32" target="nNn-SHrqSjIZFw0SR9sd-30">
          <mxGeometry relative="1" as="geometry" />
        </mxCell>
        <mxCell id="nNn-SHrqSjIZFw0SR9sd-32" value="_id" style="ellipse;whiteSpace=wrap;html=1;" vertex="1" parent="1">
          <mxGeometry x="-35" y="-750" width="110" height="50" as="geometry" />
        </mxCell>
        <mxCell id="nNn-SHrqSjIZFw0SR9sd-33" style="edgeStyle=orthogonalEdgeStyle;rounded=0;orthogonalLoop=1;jettySize=auto;html=1;endArrow=none;endFill=0;" edge="1" parent="1" source="nNn-SHrqSjIZFw0SR9sd-34" target="nNn-SHrqSjIZFw0SR9sd-30">
          <mxGeometry relative="1" as="geometry" />
        </mxCell>
        <mxCell id="nNn-SHrqSjIZFw0SR9sd-34" value="Mendaftar" style="rhombus;whiteSpace=wrap;html=1;" vertex="1" parent="1">
          <mxGeometry x="-225" y="-620" width="140" height="80" as="geometry" />
        </mxCell>
        <mxCell id="nNn-SHrqSjIZFw0SR9sd-35" style="rounded=0;orthogonalLoop=1;jettySize=auto;html=1;endArrow=none;endFill=0;" edge="1" parent="1" source="nNn-SHrqSjIZFw0SR9sd-36" target="nNn-SHrqSjIZFw0SR9sd-30">
          <mxGeometry relative="1" as="geometry" />
        </mxCell>
        <mxCell id="nNn-SHrqSjIZFw0SR9sd-36" value="status" style="ellipse;whiteSpace=wrap;html=1;" vertex="1" parent="1">
          <mxGeometry x="148.75" y="-690" width="120" height="50" as="geometry" />
        </mxCell>
        <mxCell id="nNn-SHrqSjIZFw0SR9sd-37" style="rounded=0;orthogonalLoop=1;jettySize=auto;html=1;endArrow=none;endFill=0;" edge="1" parent="1" source="nNn-SHrqSjIZFw0SR9sd-38" target="nNn-SHrqSjIZFw0SR9sd-30">
          <mxGeometry relative="1" as="geometry" />
        </mxCell>
        <mxCell id="nNn-SHrqSjIZFw0SR9sd-38" value="ijazah" style="ellipse;whiteSpace=wrap;html=1;" vertex="1" parent="1">
          <mxGeometry x="205" y="-640" width="110" height="50" as="geometry" />
        </mxCell>
        <mxCell id="nNn-SHrqSjIZFw0SR9sd-39" value="1" style="text;html=1;align=center;verticalAlign=middle;resizable=0;points=[];autosize=1;strokeColor=none;fillColor=none;" vertex="1" parent="1">
          <mxGeometry x="-301.25" y="-610" width="30" height="30" as="geometry" />
        </mxCell>
        <mxCell id="nNn-SHrqSjIZFw0SR9sd-40" value="1" style="text;html=1;align=center;verticalAlign=middle;resizable=0;points=[];autosize=1;strokeColor=none;fillColor=none;" vertex="1" parent="1">
          <mxGeometry x="-50" y="-612" width="30" height="30" as="geometry" />
        </mxCell>
        <mxCell id="nNn-SHrqSjIZFw0SR9sd-41" style="rounded=0;orthogonalLoop=1;jettySize=auto;html=1;exitX=0.5;exitY=1;exitDx=0;exitDy=0;endArrow=none;endFill=0;" edge="1" parent="1" source="nNn-SHrqSjIZFw0SR9sd-42" target="nNn-SHrqSjIZFw0SR9sd-30">
          <mxGeometry relative="1" as="geometry" />
        </mxCell>
        <mxCell id="nNn-SHrqSjIZFw0SR9sd-42" value="user_id" style="ellipse;whiteSpace=wrap;html=1;" vertex="1" parent="1">
          <mxGeometry x="75" y="-740" width="110" height="50" as="geometry" />
        </mxCell>
        <mxCell id="nNn-SHrqSjIZFw0SR9sd-43" value="Mengisi" style="rhombus;whiteSpace=wrap;html=1;" vertex="1" parent="1">
          <mxGeometry x="-438.75" y="-240" width="140" height="80" as="geometry" />
        </mxCell>
        <mxCell id="nNn-SHrqSjIZFw0SR9sd-44" style="rounded=0;orthogonalLoop=1;jettySize=auto;html=1;entryX=1;entryY=0.5;entryDx=0;entryDy=0;endArrow=none;endFill=0;" edge="1" parent="1" source="nNn-SHrqSjIZFw0SR9sd-45" target="nNn-SHrqSjIZFw0SR9sd-9">
          <mxGeometry relative="1" as="geometry" />
        </mxCell>
        <mxCell id="nNn-SHrqSjIZFw0SR9sd-45" value="Menangani" style="rhombus;whiteSpace=wrap;html=1;" vertex="1" parent="1">
          <mxGeometry x="-21.25" y="-240" width="140" height="80" as="geometry" />
        </mxCell>
        <mxCell id="nNn-SHrqSjIZFw0SR9sd-46" value="keluhan" style="ellipse;whiteSpace=wrap;html=1;" vertex="1" parent="1">
          <mxGeometry x="-121.25" y="-430" width="110" height="50" as="geometry" />
        </mxCell>
        <mxCell id="nNn-SHrqSjIZFw0SR9sd-47" style="rounded=0;orthogonalLoop=1;jettySize=auto;html=1;entryX=0.708;entryY=0;entryDx=0;entryDy=0;endArrow=none;endFill=0;entryPerimeter=0;" edge="1" parent="1" source="nNn-SHrqSjIZFw0SR9sd-48" target="nNn-SHrqSjIZFw0SR9sd-9">
          <mxGeometry relative="1" as="geometry">
            <mxPoint x="-141.25" y="-180" as="targetPoint" />
          </mxGeometry>
        </mxCell>
        <mxCell id="nNn-SHrqSjIZFw0SR9sd-48" value="riwayat" style="ellipse;whiteSpace=wrap;html=1;" vertex="1" parent="1">
          <mxGeometry x="-80" y="-360" width="105" height="50" as="geometry" />
        </mxCell>
        <mxCell id="nNn-SHrqSjIZFw0SR9sd-49" style="rounded=0;orthogonalLoop=1;jettySize=auto;html=1;jumpStyle=arc;exitX=0.5;exitY=1;exitDx=0;exitDy=0;endArrow=none;endFill=0;entryX=0.573;entryY=-0.029;entryDx=0;entryDy=0;entryPerimeter=0;" edge="1" parent="1" source="nNn-SHrqSjIZFw0SR9sd-46" target="nNn-SHrqSjIZFw0SR9sd-9">
          <mxGeometry relative="1" as="geometry">
            <mxPoint x="-156.25" y="-370" as="sourcePoint" />
            <mxPoint x="-161.25" y="-230" as="targetPoint" />
          </mxGeometry>
        </mxCell>
        <mxCell id="nNn-SHrqSjIZFw0SR9sd-50" style="rounded=0;orthogonalLoop=1;jettySize=auto;html=1;entryX=0.958;entryY=0;entryDx=0;entryDy=0;entryPerimeter=0;endArrow=none;endFill=0;" edge="1" parent="1" source="nNn-SHrqSjIZFw0SR9sd-51" target="nNn-SHrqSjIZFw0SR9sd-9">
          <mxGeometry relative="1" as="geometry">
            <mxPoint x="-116.25" y="-220" as="targetPoint" />
          </mxGeometry>
        </mxCell>
        <mxCell id="nNn-SHrqSjIZFw0SR9sd-51" value="via konsul" style="ellipse;whiteSpace=wrap;html=1;" vertex="1" parent="1">
          <mxGeometry x="-76.25" y="-300" width="105" height="50" as="geometry" />
        </mxCell>
        <mxCell id="nNn-SHrqSjIZFw0SR9sd-52" style="rounded=0;orthogonalLoop=1;jettySize=auto;html=1;endArrow=none;endFill=0;" edge="1" parent="1" source="nNn-SHrqSjIZFw0SR9sd-53" target="nNn-SHrqSjIZFw0SR9sd-54">
          <mxGeometry relative="1" as="geometry" />
        </mxCell>
        <mxCell id="nNn-SHrqSjIZFw0SR9sd-53" value="Membayar" style="rhombus;whiteSpace=wrap;html=1;" vertex="1" parent="1">
          <mxGeometry x="18.75" y="-80" width="140" height="80" as="geometry" />
        </mxCell>
        <mxCell id="nNn-SHrqSjIZFw0SR9sd-54" value="Payments" style="rounded=1;whiteSpace=wrap;html=1;" vertex="1" parent="1">
          <mxGeometry x="28.75" y="70" width="120" height="60" as="geometry" />
        </mxCell>
        <mxCell id="nNn-SHrqSjIZFw0SR9sd-55" style="rounded=0;orthogonalLoop=1;jettySize=auto;html=1;exitX=0.75;exitY=0.065;exitDx=0;exitDy=0;entryX=0.25;entryY=1;entryDx=0;entryDy=0;endArrow=none;endFill=0;exitPerimeter=0;" edge="1" parent="1" source="nNn-SHrqSjIZFw0SR9sd-56" target="nNn-SHrqSjIZFw0SR9sd-54">
          <mxGeometry relative="1" as="geometry" />
        </mxCell>
        <mxCell id="nNn-SHrqSjIZFw0SR9sd-56" value="konsultasi_id" style="ellipse;whiteSpace=wrap;html=1;" vertex="1" parent="1">
          <mxGeometry x="-86.25" y="190" width="105" height="50" as="geometry" />
        </mxCell>
        <mxCell id="nNn-SHrqSjIZFw0SR9sd-57" style="rounded=0;orthogonalLoop=1;jettySize=auto;html=1;exitX=0.5;exitY=0;exitDx=0;exitDy=0;entryX=0.5;entryY=1;entryDx=0;entryDy=0;endArrow=none;endFill=0;" edge="1" parent="1" source="nNn-SHrqSjIZFw0SR9sd-58" target="nNn-SHrqSjIZFw0SR9sd-54">
          <mxGeometry relative="1" as="geometry" />
        </mxCell>
        <mxCell id="nNn-SHrqSjIZFw0SR9sd-58" value="_id" style="ellipse;whiteSpace=wrap;html=1;" vertex="1" parent="1">
          <mxGeometry x="25" y="170" width="93.75" height="50" as="geometry" />
        </mxCell>
        <mxCell id="nNn-SHrqSjIZFw0SR9sd-59" style="rounded=0;orthogonalLoop=1;jettySize=auto;html=1;entryX=0.635;entryY=1;entryDx=0;entryDy=0;entryPerimeter=0;endArrow=none;endFill=0;" edge="1" parent="1" source="nNn-SHrqSjIZFw0SR9sd-60" target="nNn-SHrqSjIZFw0SR9sd-54">
          <mxGeometry relative="1" as="geometry" />
        </mxCell>
        <mxCell id="nNn-SHrqSjIZFw0SR9sd-60" value="status" style="ellipse;whiteSpace=wrap;html=1;" vertex="1" parent="1">
          <mxGeometry x="118.75" y="210" width="115" height="50" as="geometry" />
        </mxCell>
        <mxCell id="nNn-SHrqSjIZFw0SR9sd-61" style="rounded=0;orthogonalLoop=1;jettySize=auto;html=1;exitX=0;exitY=0;exitDx=0;exitDy=0;entryX=0.75;entryY=1;entryDx=0;entryDy=0;endArrow=none;endFill=0;" edge="1" parent="1" source="nNn-SHrqSjIZFw0SR9sd-62" target="nNn-SHrqSjIZFw0SR9sd-54">
          <mxGeometry relative="1" as="geometry" />
        </mxCell>
        <mxCell id="nNn-SHrqSjIZFw0SR9sd-62" value="bukti_pembayaran" style="ellipse;whiteSpace=wrap;html=1;" vertex="1" parent="1">
          <mxGeometry x="158.75" y="150" width="115" height="50" as="geometry" />
        </mxCell>
        <mxCell id="nNn-SHrqSjIZFw0SR9sd-63" value="user_id" style="ellipse;whiteSpace=wrap;html=1;" vertex="1" parent="1">
          <mxGeometry x="-502.5" y="40" width="115" height="50" as="geometry" />
        </mxCell>
        <mxCell id="nNn-SHrqSjIZFw0SR9sd-64" value="message" style="ellipse;whiteSpace=wrap;html=1;" vertex="1" parent="1">
          <mxGeometry x="-685" y="60" width="115" height="50" as="geometry" />
        </mxCell>
        <mxCell id="nNn-SHrqSjIZFw0SR9sd-65" value="timestamp" style="ellipse;whiteSpace=wrap;html=1;" vertex="1" parent="1">
          <mxGeometry x="-513.5" y="110" width="115" height="50" as="geometry" />
        </mxCell>
        <mxCell id="nNn-SHrqSjIZFw0SR9sd-66" style="rounded=0;orthogonalLoop=1;jettySize=auto;html=1;exitX=0.5;exitY=1;exitDx=0;exitDy=0;entryX=0.5;entryY=0;entryDx=0;entryDy=0;edgeStyle=orthogonalEdgeStyle;endArrow=open;endFill=0;" edge="1" parent="1" source="nNn-SHrqSjIZFw0SR9sd-67" target="nNn-SHrqSjIZFw0SR9sd-14">
          <mxGeometry relative="1" as="geometry" />
        </mxCell>
        <mxCell id="nNn-SHrqSjIZFw0SR9sd-67" value="Mengirim" style="rhombus;whiteSpace=wrap;html=1;" vertex="1" parent="1">
          <mxGeometry x="-615" y="-170" width="140" height="80" as="geometry" />
        </mxCell>
        <mxCell id="nNn-SHrqSjIZFw0SR9sd-68" style="rounded=0;orthogonalLoop=1;jettySize=auto;html=1;exitX=0;exitY=0.5;exitDx=0;exitDy=0;edgeStyle=orthogonalEdgeStyle;endArrow=open;endFill=0;" edge="1" parent="1" source="nNn-SHrqSjIZFw0SR9sd-69" target="nNn-SHrqSjIZFw0SR9sd-14">
          <mxGeometry relative="1" as="geometry">
            <Array as="points">
              <mxPoint x="-215" y="-10" />
              <mxPoint x="-215" y="-10" />
            </Array>
          </mxGeometry>
        </mxCell>
        <mxCell id="nNn-SHrqSjIZFw0SR9sd-69" value="Mewadahi" style="rhombus;whiteSpace=wrap;html=1;" vertex="1" parent="1">
          <mxGeometry x="-231.25" y="-50" width="140" height="80" as="geometry" />
        </mxCell>
        <mxCell id="nNn-SHrqSjIZFw0SR9sd-70" style="edgeStyle=orthogonalEdgeStyle;rounded=0;orthogonalLoop=1;jettySize=auto;html=1;exitX=0.5;exitY=1;exitDx=0;exitDy=0;" edge="1" parent="1" source="nNn-SHrqSjIZFw0SR9sd-14" target="nNn-SHrqSjIZFw0SR9sd-14">
          <mxGeometry relative="1" as="geometry" />
        </mxCell>
        <mxCell id="nNn-SHrqSjIZFw0SR9sd-71" value="_id" style="ellipse;whiteSpace=wrap;html=1;" vertex="1" parent="1">
          <mxGeometry x="-765" y="20" width="115" height="50" as="geometry" />
        </mxCell>
        <mxCell id="nNn-SHrqSjIZFw0SR9sd-72" value="" style="rounded=0;orthogonalLoop=1;jettySize=auto;html=1;endArrow=none;endFill=0;exitX=0;exitY=0.5;exitDx=0;exitDy=0;entryX=0.967;entryY=0.265;entryDx=0;entryDy=0;entryPerimeter=0;" edge="1" parent="1" source="nNn-SHrqSjIZFw0SR9sd-14" target="nNn-SHrqSjIZFw0SR9sd-71">
          <mxGeometry relative="1" as="geometry">
            <mxPoint x="-582" y="40" as="sourcePoint" />
            <mxPoint x="-665" y="10" as="targetPoint" />
          </mxGeometry>
        </mxCell>
        <mxCell id="nNn-SHrqSjIZFw0SR9sd-73" style="rounded=0;orthogonalLoop=1;jettySize=auto;html=1;endArrow=none;endFill=0;" edge="1" parent="1" source="nNn-SHrqSjIZFw0SR9sd-74" target="nNn-SHrqSjIZFw0SR9sd-9">
          <mxGeometry relative="1" as="geometry" />
        </mxCell>
        <mxCell id="nNn-SHrqSjIZFw0SR9sd-74" value="_id" style="ellipse;whiteSpace=wrap;html=1;" vertex="1" parent="1">
          <mxGeometry x="-307.5" y="-440" width="103.75" height="50" as="geometry" />
        </mxCell>
        <mxCell id="nNn-SHrqSjIZFw0SR9sd-75" style="rounded=0;orthogonalLoop=1;jettySize=auto;html=1;entryX=1;entryY=1;entryDx=0;entryDy=0;endArrow=none;endFill=0;" edge="1" parent="1" source="nNn-SHrqSjIZFw0SR9sd-82" target="nNn-SHrqSjIZFw0SR9sd-87">
          <mxGeometry relative="1" as="geometry">
            <mxPoint x="-875" y="-660" as="targetPoint" />
          </mxGeometry>
        </mxCell>
        <mxCell id="nNn-SHrqSjIZFw0SR9sd-76" style="rounded=0;orthogonalLoop=1;jettySize=auto;html=1;entryX=1;entryY=0.5;entryDx=0;entryDy=0;endArrow=none;endFill=0;exitX=0;exitY=0.25;exitDx=0;exitDy=0;" edge="1" parent="1" source="nNn-SHrqSjIZFw0SR9sd-82" target="nNn-SHrqSjIZFw0SR9sd-85">
          <mxGeometry relative="1" as="geometry">
            <mxPoint x="-955" y="-590" as="sourcePoint" />
          </mxGeometry>
        </mxCell>
        <mxCell id="nNn-SHrqSjIZFw0SR9sd-77" style="rounded=0;orthogonalLoop=1;jettySize=auto;html=1;exitX=0;exitY=0.5;exitDx=0;exitDy=0;entryX=1;entryY=0.5;entryDx=0;entryDy=0;endArrow=none;endFill=0;" edge="1" parent="1" source="nNn-SHrqSjIZFw0SR9sd-82" target="nNn-SHrqSjIZFw0SR9sd-83">
          <mxGeometry relative="1" as="geometry" />
        </mxCell>
        <mxCell id="nNn-SHrqSjIZFw0SR9sd-78" style="rounded=0;orthogonalLoop=1;jettySize=auto;html=1;exitX=0;exitY=0.75;exitDx=0;exitDy=0;endArrow=none;endFill=0;" edge="1" parent="1" source="nNn-SHrqSjIZFw0SR9sd-82" target="nNn-SHrqSjIZFw0SR9sd-88">
          <mxGeometry relative="1" as="geometry" />
        </mxCell>
        <mxCell id="nNn-SHrqSjIZFw0SR9sd-79" style="rounded=0;orthogonalLoop=1;jettySize=auto;html=1;endArrow=none;endFill=0;exitX=0.177;exitY=0.992;exitDx=0;exitDy=0;exitPerimeter=0;" edge="1" parent="1" source="nNn-SHrqSjIZFw0SR9sd-82" target="nNn-SHrqSjIZFw0SR9sd-84">
          <mxGeometry relative="1" as="geometry" />
        </mxCell>
        <mxCell id="nNn-SHrqSjIZFw0SR9sd-80" style="rounded=0;orthogonalLoop=1;jettySize=auto;html=1;endArrow=none;endFill=0;exitX=0.396;exitY=0.992;exitDx=0;exitDy=0;exitPerimeter=0;" edge="1" parent="1" source="nNn-SHrqSjIZFw0SR9sd-82" target="nNn-SHrqSjIZFw0SR9sd-86">
          <mxGeometry relative="1" as="geometry">
            <mxPoint x="-855" y="-550" as="sourcePoint" />
          </mxGeometry>
        </mxCell>
        <mxCell id="nNn-SHrqSjIZFw0SR9sd-81" style="rounded=0;orthogonalLoop=1;jettySize=auto;html=1;entryX=0;entryY=0.5;entryDx=0;entryDy=0;endArrow=none;endFill=0;" edge="1" parent="1" source="nNn-SHrqSjIZFw0SR9sd-82" target="nNn-SHrqSjIZFw0SR9sd-90">
          <mxGeometry relative="1" as="geometry" />
        </mxCell>
        <mxCell id="nNn-SHrqSjIZFw0SR9sd-82" value="Blog" style="rounded=1;whiteSpace=wrap;html=1;" vertex="1" parent="1">
          <mxGeometry x="-945" y="-610" width="120" height="60" as="geometry" />
        </mxCell>
        <mxCell id="nNn-SHrqSjIZFw0SR9sd-83" value="title" style="ellipse;whiteSpace=wrap;html=1;" vertex="1" parent="1">
          <mxGeometry x="-1165" y="-570" width="110" height="50" as="geometry" />
        </mxCell>
        <mxCell id="nNn-SHrqSjIZFw0SR9sd-84" value="description" style="ellipse;whiteSpace=wrap;html=1;" vertex="1" parent="1">
          <mxGeometry x="-1035" y="-510" width="110" height="50" as="geometry" />
        </mxCell>
        <mxCell id="nNn-SHrqSjIZFw0SR9sd-85" value="_id" style="ellipse;whiteSpace=wrap;html=1;" vertex="1" parent="1">
          <mxGeometry x="-1175" y="-632" width="110" height="50" as="geometry" />
        </mxCell>
        <mxCell id="nNn-SHrqSjIZFw0SR9sd-86" value="author" style="ellipse;whiteSpace=wrap;html=1;" vertex="1" parent="1">
          <mxGeometry x="-1020" y="-440" width="110" height="50" as="geometry" />
        </mxCell>
        <mxCell id="nNn-SHrqSjIZFw0SR9sd-87" value="content" style="ellipse;whiteSpace=wrap;html=1;" vertex="1" parent="1">
          <mxGeometry x="-1145" y="-690" width="110" height="50" as="geometry" />
        </mxCell>
        <mxCell id="nNn-SHrqSjIZFw0SR9sd-88" value="user_id" style="ellipse;whiteSpace=wrap;html=1;" vertex="1" parent="1">
          <mxGeometry x="-1145" y="-510" width="110" height="50" as="geometry" />
        </mxCell>
        <mxCell id="nNn-SHrqSjIZFw0SR9sd-89" style="rounded=0;orthogonalLoop=1;jettySize=auto;html=1;entryX=0;entryY=0.5;entryDx=0;entryDy=0;endArrow=none;endFill=0;" edge="1" parent="1" source="nNn-SHrqSjIZFw0SR9sd-90" target="nNn-SHrqSjIZFw0SR9sd-5">
          <mxGeometry relative="1" as="geometry">
            <mxPoint x="-535" y="-580" as="targetPoint" />
          </mxGeometry>
        </mxCell>
        <mxCell id="nNn-SHrqSjIZFw0SR9sd-90" value="Membuat" style="rhombus;whiteSpace=wrap;html=1;" vertex="1" parent="1">
          <mxGeometry x="-745" y="-620" width="140" height="80" as="geometry" />
        </mxCell>
        <mxCell id="nNn-SHrqSjIZFw0SR9sd-91" style="rounded=0;orthogonalLoop=1;jettySize=auto;html=1;entryX=1;entryY=1;entryDx=0;entryDy=0;endArrow=none;endFill=0;exitX=0.656;exitY=0.992;exitDx=0;exitDy=0;exitPerimeter=0;" edge="1" parent="1" source="nNn-SHrqSjIZFw0SR9sd-98" target="nNn-SHrqSjIZFw0SR9sd-103">
          <mxGeometry relative="1" as="geometry">
            <mxPoint x="-865" y="-310" as="targetPoint" />
          </mxGeometry>
        </mxCell>
        <mxCell id="nNn-SHrqSjIZFw0SR9sd-92" style="rounded=0;orthogonalLoop=1;jettySize=auto;html=1;entryX=1;entryY=0.5;entryDx=0;entryDy=0;endArrow=none;endFill=0;" edge="1" parent="1" target="nNn-SHrqSjIZFw0SR9sd-101">
          <mxGeometry relative="1" as="geometry">
            <mxPoint x="-935" y="-240" as="sourcePoint" />
          </mxGeometry>
        </mxCell>
        <mxCell id="nNn-SHrqSjIZFw0SR9sd-93" style="rounded=0;orthogonalLoop=1;jettySize=auto;html=1;exitX=0;exitY=0.5;exitDx=0;exitDy=0;entryX=1;entryY=0.5;entryDx=0;entryDy=0;endArrow=none;endFill=0;" edge="1" parent="1" source="nNn-SHrqSjIZFw0SR9sd-98" target="nNn-SHrqSjIZFw0SR9sd-99">
          <mxGeometry relative="1" as="geometry" />
        </mxCell>
        <mxCell id="nNn-SHrqSjIZFw0SR9sd-94" style="rounded=0;orthogonalLoop=1;jettySize=auto;html=1;endArrow=none;endFill=0;exitX=0.25;exitY=1;exitDx=0;exitDy=0;" edge="1" parent="1" source="nNn-SHrqSjIZFw0SR9sd-98" target="nNn-SHrqSjIZFw0SR9sd-104">
          <mxGeometry relative="1" as="geometry">
            <mxPoint x="-935" y="-200" as="sourcePoint" />
          </mxGeometry>
        </mxCell>
        <mxCell id="nNn-SHrqSjIZFw0SR9sd-95" style="rounded=0;orthogonalLoop=1;jettySize=auto;html=1;endArrow=none;endFill=0;" edge="1" parent="1" source="nNn-SHrqSjIZFw0SR9sd-98" target="nNn-SHrqSjIZFw0SR9sd-100">
          <mxGeometry relative="1" as="geometry">
            <mxPoint x="-905" y="-200" as="sourcePoint" />
          </mxGeometry>
        </mxCell>
        <mxCell id="nNn-SHrqSjIZFw0SR9sd-96" style="rounded=0;orthogonalLoop=1;jettySize=auto;html=1;endArrow=none;endFill=0;exitX=0.5;exitY=1;exitDx=0;exitDy=0;" edge="1" parent="1" source="nNn-SHrqSjIZFw0SR9sd-98" target="nNn-SHrqSjIZFw0SR9sd-102">
          <mxGeometry relative="1" as="geometry">
            <mxPoint x="-845" y="-200" as="sourcePoint" />
          </mxGeometry>
        </mxCell>
        <mxCell id="nNn-SHrqSjIZFw0SR9sd-97" style="rounded=0;orthogonalLoop=1;jettySize=auto;html=1;exitX=0.5;exitY=0;exitDx=0;exitDy=0;endArrow=none;endFill=0;" edge="1" parent="1" source="nNn-SHrqSjIZFw0SR9sd-98" target="nNn-SHrqSjIZFw0SR9sd-110">
          <mxGeometry relative="1" as="geometry">
            <Array as="points">
              <mxPoint x="-875" y="-420" />
            </Array>
          </mxGeometry>
        </mxCell>
        <mxCell id="nNn-SHrqSjIZFw0SR9sd-98" value="Video" style="rounded=1;whiteSpace=wrap;html=1;" vertex="1" parent="1">
          <mxGeometry x="-935" y="-300" width="120" height="60" as="geometry" />
        </mxCell>
        <mxCell id="nNn-SHrqSjIZFw0SR9sd-99" value="title" style="ellipse;whiteSpace=wrap;html=1;" vertex="1" parent="1">
          <mxGeometry x="-725" y="-190" width="110" height="50" as="geometry" />
        </mxCell>
        <mxCell id="nNn-SHrqSjIZFw0SR9sd-100" value="description" style="ellipse;whiteSpace=wrap;html=1;" vertex="1" parent="1">
          <mxGeometry x="-975" y="-160" width="110" height="50" as="geometry" />
        </mxCell>
        <mxCell id="nNn-SHrqSjIZFw0SR9sd-101" value="_id" style="ellipse;whiteSpace=wrap;html=1;" vertex="1" parent="1">
          <mxGeometry x="-1125" y="-200" width="110" height="50" as="geometry" />
        </mxCell>
        <mxCell id="nNn-SHrqSjIZFw0SR9sd-102" value="author" style="ellipse;whiteSpace=wrap;html=1;" vertex="1" parent="1">
          <mxGeometry x="-885" y="-110" width="110" height="50" as="geometry" />
        </mxCell>
        <mxCell id="nNn-SHrqSjIZFw0SR9sd-103" value="content" style="ellipse;whiteSpace=wrap;html=1;" vertex="1" parent="1">
          <mxGeometry x="-835" y="-170" width="110" height="50" as="geometry" />
        </mxCell>
        <mxCell id="nNn-SHrqSjIZFw0SR9sd-104" value="user_id" style="ellipse;whiteSpace=wrap;html=1;" vertex="1" parent="1">
          <mxGeometry x="-1075" y="-140" width="110" height="50" as="geometry" />
        </mxCell>
        <mxCell id="nNn-SHrqSjIZFw0SR9sd-105" style="rounded=0;orthogonalLoop=1;jettySize=auto;html=1;exitX=1;exitY=1;exitDx=0;exitDy=0;endArrow=none;endFill=0;" edge="1" parent="1" source="nNn-SHrqSjIZFw0SR9sd-106" target="nNn-SHrqSjIZFw0SR9sd-82">
          <mxGeometry relative="1" as="geometry" />
        </mxCell>
        <mxCell id="nNn-SHrqSjIZFw0SR9sd-106" value="thumbnail" style="ellipse;whiteSpace=wrap;html=1;" vertex="1" parent="1">
          <mxGeometry x="-1020" y="-715" width="110" height="50" as="geometry" />
        </mxCell>
        <mxCell id="nNn-SHrqSjIZFw0SR9sd-107" style="rounded=0;orthogonalLoop=1;jettySize=auto;html=1;endArrow=none;endFill=0;" edge="1" parent="1" source="nNn-SHrqSjIZFw0SR9sd-108" target="nNn-SHrqSjIZFw0SR9sd-98">
          <mxGeometry relative="1" as="geometry" />
        </mxCell>
        <mxCell id="nNn-SHrqSjIZFw0SR9sd-108" value="video_url" style="ellipse;whiteSpace=wrap;html=1;" vertex="1" parent="1">
          <mxGeometry x="-1130" y="-290" width="110" height="50" as="geometry" />
        </mxCell>
        <mxCell id="nNn-SHrqSjIZFw0SR9sd-109" style="rounded=0;orthogonalLoop=1;jettySize=auto;html=1;endArrow=none;endFill=0;entryX=0;entryY=0.847;entryDx=0;entryDy=0;entryPerimeter=0;" edge="1" parent="1" source="nNn-SHrqSjIZFw0SR9sd-110" target="nNn-SHrqSjIZFw0SR9sd-5">
          <mxGeometry relative="1" as="geometry">
            <mxPoint x="-435" y="-550" as="targetPoint" />
            <Array as="points">
              <mxPoint x="-427" y="-420" />
            </Array>
          </mxGeometry>
        </mxCell>
        <mxCell id="nNn-SHrqSjIZFw0SR9sd-110" value="Membuat" style="rhombus;whiteSpace=wrap;html=1;" vertex="1" parent="1">
          <mxGeometry x="-683.5" y="-460" width="140" height="80" as="geometry" />
        </mxCell>
        <mxCell id="nNn-SHrqSjIZFw0SR9sd-111" style="rounded=0;orthogonalLoop=1;jettySize=auto;html=1;endArrow=none;endFill=0;" edge="1" parent="1" source="nNn-SHrqSjIZFw0SR9sd-112" target="nNn-SHrqSjIZFw0SR9sd-5">
          <mxGeometry relative="1" as="geometry" />
        </mxCell>
        <mxCell id="nNn-SHrqSjIZFw0SR9sd-112" value="email" style="ellipse;whiteSpace=wrap;html=1;" vertex="1" parent="1">
          <mxGeometry x="-590" y="-660" width="105" height="50" as="geometry" />
        </mxCell>
        <mxCell id="nNn-SHrqSjIZFw0SR9sd-113" style="rounded=0;orthogonalLoop=1;jettySize=auto;html=1;exitX=0.5;exitY=1;exitDx=0;exitDy=0;entryX=0.25;entryY=0;entryDx=0;entryDy=0;endArrow=none;endFill=0;" edge="1" parent="1" source="nNn-SHrqSjIZFw0SR9sd-114" target="nNn-SHrqSjIZFw0SR9sd-5">
          <mxGeometry relative="1" as="geometry" />
        </mxCell>
        <mxCell id="nNn-SHrqSjIZFw0SR9sd-114" value="password" style="ellipse;whiteSpace=wrap;html=1;" vertex="1" parent="1">
          <mxGeometry x="-555" y="-830" width="105" height="50" as="geometry" />
        </mxCell>
        <mxCell id="nNn-SHrqSjIZFw0SR9sd-115" value="is_verified" style="ellipse;whiteSpace=wrap;html=1;" vertex="1" parent="1">
          <mxGeometry x="-240" y="-715" width="105" height="50" as="geometry" />
        </mxCell>
        <mxCell id="nNn-SHrqSjIZFw0SR9sd-116" style="rounded=0;orthogonalLoop=1;jettySize=auto;html=1;endArrow=none;endFill=0;" edge="1" parent="1" source="nNn-SHrqSjIZFw0SR9sd-117" target="nNn-SHrqSjIZFw0SR9sd-5">
          <mxGeometry relative="1" as="geometry" />
        </mxCell>
        <mxCell id="nNn-SHrqSjIZFw0SR9sd-117" value="gender" style="ellipse;whiteSpace=wrap;html=1;" vertex="1" parent="1">
          <mxGeometry x="-225" y="-795" width="105" height="50" as="geometry" />
        </mxCell>
        <mxCell id="nNn-SHrqSjIZFw0SR9sd-118" value="univ" style="ellipse;whiteSpace=wrap;html=1;" vertex="1" parent="1">
          <mxGeometry x="215" y="-570" width="110" height="50" as="geometry" />
        </mxCell>
        <mxCell id="nNn-SHrqSjIZFw0SR9sd-119" value="ktp" style="ellipse;whiteSpace=wrap;html=1;" vertex="1" parent="1">
          <mxGeometry x="175" y="-510" width="110" height="50" as="geometry" />
        </mxCell>
        <mxCell id="nNn-SHrqSjIZFw0SR9sd-120" value="" style="endArrow=none;html=1;rounded=0;" edge="1" parent="1">
          <mxGeometry relative="1" as="geometry">
            <mxPoint x="-445" y="-740" as="sourcePoint" />
            <mxPoint x="-375" y="-740" as="targetPoint" />
          </mxGeometry>
        </mxCell>
        <mxCell id="nNn-SHrqSjIZFw0SR9sd-121" value="" style="endArrow=none;html=1;rounded=0;" edge="1" parent="1">
          <mxGeometry relative="1" as="geometry">
            <mxPoint x="-291.25" y="-405.71000000000004" as="sourcePoint" />
            <mxPoint x="-221.25" y="-405.71000000000004" as="targetPoint" />
            <Array as="points">
              <mxPoint x="-248.13" y="-405.71000000000004" />
            </Array>
          </mxGeometry>
        </mxCell>
        <mxCell id="nNn-SHrqSjIZFw0SR9sd-122" value="" style="endArrow=none;html=1;rounded=0;" edge="1" parent="1">
          <mxGeometry relative="1" as="geometry">
            <mxPoint x="-742.5" y="57.329999999999984" as="sourcePoint" />
            <mxPoint x="-672.5" y="57.329999999999984" as="targetPoint" />
            <Array as="points">
              <mxPoint x="-699.38" y="57.329999999999984" />
            </Array>
          </mxGeometry>
        </mxCell>
        <mxCell id="nNn-SHrqSjIZFw0SR9sd-123" value="" style="endArrow=none;html=1;rounded=0;" edge="1" parent="1">
          <mxGeometry relative="1" as="geometry">
            <mxPoint x="-1110" y="-165.59" as="sourcePoint" />
            <mxPoint x="-1040" y="-165.59" as="targetPoint" />
            <Array as="points">
              <mxPoint x="-1066.88" y="-165.59" />
            </Array>
          </mxGeometry>
        </mxCell>
        <mxCell id="nNn-SHrqSjIZFw0SR9sd-124" value="" style="endArrow=none;html=1;rounded=0;" edge="1" parent="1">
          <mxGeometry relative="1" as="geometry">
            <mxPoint x="-1155" y="-595.59" as="sourcePoint" />
            <mxPoint x="-1085" y="-595.59" as="targetPoint" />
            <Array as="points">
              <mxPoint x="-1111.88" y="-595.59" />
            </Array>
          </mxGeometry>
        </mxCell>
        <mxCell id="nNn-SHrqSjIZFw0SR9sd-125" value="" style="endArrow=none;html=1;rounded=0;" edge="1" parent="1">
          <mxGeometry relative="1" as="geometry">
            <mxPoint x="-15" y="-715" as="sourcePoint" />
            <mxPoint x="55" y="-715" as="targetPoint" />
          </mxGeometry>
        </mxCell>
        <mxCell id="nNn-SHrqSjIZFw0SR9sd-126" value="1" style="text;html=1;align=center;verticalAlign=middle;resizable=0;points=[];autosize=1;strokeColor=none;fillColor=none;" vertex="1" parent="1">
          <mxGeometry x="18.75" y="-550" width="30" height="30" as="geometry" />
        </mxCell>
        <mxCell id="nNn-SHrqSjIZFw0SR9sd-127" value="1" style="text;html=1;align=center;verticalAlign=middle;resizable=0;points=[];autosize=1;strokeColor=none;fillColor=none;" vertex="1" parent="1">
          <mxGeometry x="-371.25" y="-550" width="30" height="30" as="geometry" />
        </mxCell>
        <mxCell id="nNn-SHrqSjIZFw0SR9sd-128" value="n" style="text;html=1;align=center;verticalAlign=middle;resizable=0;points=[];autosize=1;strokeColor=none;fillColor=none;" vertex="1" parent="1">
          <mxGeometry x="-251.25" y="-230" width="30" height="30" as="geometry" />
        </mxCell>
        <mxCell id="nNn-SHrqSjIZFw0SR9sd-129" value="n" style="text;html=1;align=center;verticalAlign=middle;resizable=0;points=[];autosize=1;strokeColor=none;fillColor=none;" vertex="1" parent="1">
          <mxGeometry x="-101.25" y="-230" width="30" height="30" as="geometry" />
        </mxCell>
        <mxCell id="nNn-SHrqSjIZFw0SR9sd-130" value="1" style="text;html=1;align=center;verticalAlign=middle;resizable=0;points=[];autosize=1;strokeColor=none;fillColor=none;" vertex="1" parent="1">
          <mxGeometry x="-161.25" y="-170" width="30" height="30" as="geometry" />
        </mxCell>
        <mxCell id="nNn-SHrqSjIZFw0SR9sd-131" value="n" style="text;html=1;align=center;verticalAlign=middle;resizable=0;points=[];autosize=1;strokeColor=none;fillColor=none;" vertex="1" parent="1">
          <mxGeometry x="-485" y="-40" width="30" height="30" as="geometry" />
        </mxCell>
        <mxCell id="nNn-SHrqSjIZFw0SR9sd-132" value="n" style="text;html=1;align=center;verticalAlign=middle;resizable=0;points=[];autosize=1;strokeColor=none;fillColor=none;" vertex="1" parent="1">
          <mxGeometry x="-543.5" y="-60" width="30" height="30" as="geometry" />
        </mxCell>
        <mxCell id="nNn-SHrqSjIZFw0SR9sd-133" value="1" style="text;html=1;align=center;verticalAlign=middle;resizable=0;points=[];autosize=1;strokeColor=none;fillColor=none;" vertex="1" parent="1">
          <mxGeometry x="-403" y="-550" width="30" height="30" as="geometry" />
        </mxCell>
        <mxCell id="nNn-SHrqSjIZFw0SR9sd-134" value="1" style="text;html=1;align=center;verticalAlign=middle;resizable=0;points=[];autosize=1;strokeColor=none;fillColor=none;" vertex="1" parent="1">
          <mxGeometry x="-455" y="-570" width="30" height="30" as="geometry" />
        </mxCell>
        <mxCell id="nNn-SHrqSjIZFw0SR9sd-135" value="n" style="text;html=1;align=center;verticalAlign=middle;resizable=0;points=[];autosize=1;strokeColor=none;fillColor=none;" vertex="1" parent="1">
          <mxGeometry x="-875" y="-330" width="30" height="30" as="geometry" />
        </mxCell>
        <mxCell id="nNn-SHrqSjIZFw0SR9sd-136" value="n" style="text;html=1;align=center;verticalAlign=middle;resizable=0;points=[];autosize=1;strokeColor=none;fillColor=none;" vertex="1" parent="1">
          <mxGeometry x="-825" y="-610" width="30" height="30" as="geometry" />
        </mxCell>
        <mxCell id="nNn-SHrqSjIZFw0SR9sd-137" value="1" style="text;html=1;align=center;verticalAlign=middle;resizable=0;points=[];autosize=1;strokeColor=none;fillColor=none;" vertex="1" parent="1">
          <mxGeometry x="-460" y="-610" width="30" height="30" as="geometry" />
        </mxCell>
        <mxCell id="nNn-SHrqSjIZFw0SR9sd-138" value="1" style="text;html=1;align=center;verticalAlign=middle;resizable=0;points=[];autosize=1;strokeColor=none;fillColor=none;" vertex="1" parent="1">
          <mxGeometry x="85" y="40" width="30" height="30" as="geometry" />
        </mxCell>
        <mxCell id="nNn-SHrqSjIZFw0SR9sd-139" style="rounded=0;orthogonalLoop=1;jettySize=auto;html=1;exitX=1;exitY=1;exitDx=0;exitDy=0;entryX=0;entryY=0;entryDx=0;entryDy=0;endArrow=none;endFill=0;" edge="1" parent="1" source="nNn-SHrqSjIZFw0SR9sd-140" target="nNn-SHrqSjIZFw0SR9sd-5">
          <mxGeometry relative="1" as="geometry" />
        </mxCell>
        <mxCell id="nNn-SHrqSjIZFw0SR9sd-140" value="date_birth" style="ellipse;whiteSpace=wrap;html=1;" vertex="1" parent="1">
          <mxGeometry x="-685" y="-775" width="105" height="50" as="geometry" />
        </mxCell>
        <mxCell id="nNn-SHrqSjIZFw0SR9sd-141" value="konsul_id" style="ellipse;whiteSpace=wrap;html=1;" vertex="1" parent="1">
          <mxGeometry x="-386.25" y="30" width="115" height="50" as="geometry" />
        </mxCell>
        <mxCell id="nNn-SHrqSjIZFw0SR9sd-142" style="rounded=0;orthogonalLoop=1;jettySize=auto;html=1;exitX=0.5;exitY=1;exitDx=0;exitDy=0;entryX=0.75;entryY=0;entryDx=0;entryDy=0;endArrow=none;endFill=0;" edge="1" parent="1" source="nNn-SHrqSjIZFw0SR9sd-143" target="nNn-SHrqSjIZFw0SR9sd-82">
          <mxGeometry relative="1" as="geometry" />
        </mxCell>
        <mxCell id="nNn-SHrqSjIZFw0SR9sd-143" value="created_at" style="ellipse;whiteSpace=wrap;html=1;" vertex="1" parent="1">
          <mxGeometry x="-895" y="-730" width="110" height="50" as="geometry" />
        </mxCell>
        <mxCell id="nNn-SHrqSjIZFw0SR9sd-144" style="rounded=0;orthogonalLoop=1;jettySize=auto;html=1;exitX=0.5;exitY=1;exitDx=0;exitDy=0;endArrow=none;endFill=0;entryX=-0.054;entryY=0.012;entryDx=0;entryDy=0;entryPerimeter=0;" edge="1" parent="1" source="nNn-SHrqSjIZFw0SR9sd-145" target="nNn-SHrqSjIZFw0SR9sd-136">
          <mxGeometry relative="1" as="geometry">
            <mxPoint x="-845" y="-600" as="targetPoint" />
          </mxGeometry>
        </mxCell>
        <mxCell id="nNn-SHrqSjIZFw0SR9sd-145" value="updated_at" style="ellipse;whiteSpace=wrap;html=1;" vertex="1" parent="1">
          <mxGeometry x="-815" y="-690" width="110" height="50" as="geometry" />
        </mxCell>
        <mxCell id="nNn-SHrqSjIZFw0SR9sd-146" style="rounded=0;orthogonalLoop=1;jettySize=auto;html=1;exitX=0.5;exitY=1;exitDx=0;exitDy=0;endArrow=none;endFill=0;" edge="1" parent="1" source="nNn-SHrqSjIZFw0SR9sd-147" target="nNn-SHrqSjIZFw0SR9sd-30">
          <mxGeometry relative="1" as="geometry" />
        </mxCell>
        <mxCell id="nNn-SHrqSjIZFw0SR9sd-147" value="updated_at" style="ellipse;whiteSpace=wrap;html=1;" vertex="1" parent="1">
          <mxGeometry x="135" y="-430" width="110" height="50" as="geometry" />
        </mxCell>
        <mxCell id="nNn-SHrqSjIZFw0SR9sd-148" style="rounded=0;orthogonalLoop=1;jettySize=auto;html=1;exitX=0.5;exitY=0;exitDx=0;exitDy=0;endArrow=none;endFill=0;" edge="1" parent="1" source="nNn-SHrqSjIZFw0SR9sd-149" target="nNn-SHrqSjIZFw0SR9sd-30">
          <mxGeometry relative="1" as="geometry" />
        </mxCell>
        <mxCell id="nNn-SHrqSjIZFw0SR9sd-149" value="created_at" style="ellipse;whiteSpace=wrap;html=1;" vertex="1" parent="1">
          <mxGeometry x="45" y="-470" width="110" height="50" as="geometry" />
        </mxCell>
        <mxCell id="nNn-SHrqSjIZFw0SR9sd-150" style="rounded=0;orthogonalLoop=1;jettySize=auto;html=1;exitX=0;exitY=1;exitDx=0;exitDy=0;endArrow=none;endFill=0;" edge="1" parent="1" source="nNn-SHrqSjIZFw0SR9sd-151">
          <mxGeometry relative="1" as="geometry">
            <mxPoint x="-365" y="-620" as="targetPoint" />
          </mxGeometry>
        </mxCell>
        <mxCell id="nNn-SHrqSjIZFw0SR9sd-151" value="updated_at" style="ellipse;whiteSpace=wrap;html=1;" vertex="1" parent="1">
          <mxGeometry x="-291.25" y="-870" width="110" height="50" as="geometry" />
        </mxCell>
        <mxCell id="nNn-SHrqSjIZFw0SR9sd-152" style="rounded=0;orthogonalLoop=1;jettySize=auto;html=1;exitX=0;exitY=1;exitDx=0;exitDy=0;endArrow=none;endFill=0;" edge="1" parent="1" source="nNn-SHrqSjIZFw0SR9sd-153" target="nNn-SHrqSjIZFw0SR9sd-5">
          <mxGeometry relative="1" as="geometry" />
        </mxCell>
        <mxCell id="nNn-SHrqSjIZFw0SR9sd-153" value="created_at" style="ellipse;whiteSpace=wrap;html=1;" vertex="1" parent="1">
          <mxGeometry x="-131.25" y="-700" width="110" height="50" as="geometry" />
        </mxCell>
        <mxCell id="nNn-SHrqSjIZFw0SR9sd-154" style="rounded=0;orthogonalLoop=1;jettySize=auto;html=1;exitX=0.5;exitY=1;exitDx=0;exitDy=0;endArrow=none;endFill=0;" edge="1" parent="1" source="nNn-SHrqSjIZFw0SR9sd-155">
          <mxGeometry relative="1" as="geometry">
            <mxPoint x="-165" y="-230" as="targetPoint" />
          </mxGeometry>
        </mxCell>
        <mxCell id="nNn-SHrqSjIZFw0SR9sd-155" value="created_at" style="ellipse;whiteSpace=wrap;html=1;" vertex="1" parent="1">
          <mxGeometry x="-220" y="-480" width="110" height="50" as="geometry" />
        </mxCell>
        <mxCell id="nNn-SHrqSjIZFw0SR9sd-156" style="rounded=0;orthogonalLoop=1;jettySize=auto;html=1;exitX=0.5;exitY=1;exitDx=0;exitDy=0;entryX=0.5;entryY=0;entryDx=0;entryDy=0;endArrow=none;endFill=0;" edge="1" parent="1" source="nNn-SHrqSjIZFw0SR9sd-157" target="nNn-SHrqSjIZFw0SR9sd-9">
          <mxGeometry relative="1" as="geometry" />
        </mxCell>
        <mxCell id="nNn-SHrqSjIZFw0SR9sd-157" value="updated_at" style="ellipse;whiteSpace=wrap;html=1;" vertex="1" parent="1">
          <mxGeometry x="-201.25" y="-380" width="110" height="50" as="geometry" />
        </mxCell>
        <mxCell id="nNn-SHrqSjIZFw0SR9sd-158" style="rounded=0;orthogonalLoop=1;jettySize=auto;html=1;exitX=0;exitY=0;exitDx=0;exitDy=0;endArrow=none;endFill=0;" edge="1" parent="1" source="nNn-SHrqSjIZFw0SR9sd-159" target="nNn-SHrqSjIZFw0SR9sd-54">
          <mxGeometry relative="1" as="geometry" />
        </mxCell>
        <mxCell id="nNn-SHrqSjIZFw0SR9sd-159" value="created_at" style="ellipse;whiteSpace=wrap;html=1;" vertex="1" parent="1">
          <mxGeometry x="185" y="70" width="110" height="50" as="geometry" />
        </mxCell>
        <mxCell id="nNn-SHrqSjIZFw0SR9sd-160" style="rounded=0;orthogonalLoop=1;jettySize=auto;html=1;endArrow=none;endFill=0;" edge="1" parent="1" source="nNn-SHrqSjIZFw0SR9sd-161" target="nNn-SHrqSjIZFw0SR9sd-54">
          <mxGeometry relative="1" as="geometry" />
        </mxCell>
        <mxCell id="nNn-SHrqSjIZFw0SR9sd-161" value="updated_at" style="ellipse;whiteSpace=wrap;html=1;" vertex="1" parent="1">
          <mxGeometry x="265" y="110" width="110" height="50" as="geometry" />
        </mxCell>
        <mxCell id="nNn-SHrqSjIZFw0SR9sd-162" style="rounded=0;orthogonalLoop=1;jettySize=auto;html=1;exitX=0.5;exitY=0;exitDx=0;exitDy=0;entryX=0.5;entryY=1;entryDx=0;entryDy=0;endArrow=none;endFill=0;" edge="1" parent="1" source="nNn-SHrqSjIZFw0SR9sd-163" target="nNn-SHrqSjIZFw0SR9sd-14">
          <mxGeometry relative="1" as="geometry" />
        </mxCell>
        <mxCell id="nNn-SHrqSjIZFw0SR9sd-163" value="created_at" style="ellipse;whiteSpace=wrap;html=1;" vertex="1" parent="1">
          <mxGeometry x="-635" y="120" width="110" height="50" as="geometry" />
        </mxCell>
        <mxCell id="nNn-SHrqSjIZFw0SR9sd-164" style="rounded=0;orthogonalLoop=1;jettySize=auto;html=1;exitX=0.5;exitY=0;exitDx=0;exitDy=0;entryX=0.5;entryY=1;entryDx=0;entryDy=0;endArrow=none;endFill=0;" edge="1" parent="1" source="nNn-SHrqSjIZFw0SR9sd-165" target="nNn-SHrqSjIZFw0SR9sd-14">
          <mxGeometry relative="1" as="geometry" />
        </mxCell>
        <mxCell id="nNn-SHrqSjIZFw0SR9sd-165" value="updated_at" style="ellipse;whiteSpace=wrap;html=1;" vertex="1" parent="1">
          <mxGeometry x="-557.5" y="180" width="110" height="50" as="geometry" />
        </mxCell>
        <mxCell id="nNn-SHrqSjIZFw0SR9sd-166" style="rounded=0;orthogonalLoop=1;jettySize=auto;html=1;exitX=1;exitY=0;exitDx=0;exitDy=0;entryX=0.145;entryY=0.976;entryDx=0;entryDy=0;entryPerimeter=0;endArrow=none;endFill=0;" edge="1" parent="1" source="nNn-SHrqSjIZFw0SR9sd-167" target="nNn-SHrqSjIZFw0SR9sd-98">
          <mxGeometry relative="1" as="geometry" />
        </mxCell>
        <mxCell id="nNn-SHrqSjIZFw0SR9sd-167" value="created_at" style="ellipse;whiteSpace=wrap;html=1;" vertex="1" parent="1">
          <mxGeometry x="-1225" y="-240" width="110" height="50" as="geometry" />
        </mxCell>
        <mxCell id="nNn-SHrqSjIZFw0SR9sd-168" style="rounded=0;orthogonalLoop=1;jettySize=auto;html=1;exitX=1;exitY=0;exitDx=0;exitDy=0;endArrow=none;endFill=0;" edge="1" parent="1" source="nNn-SHrqSjIZFw0SR9sd-169">
          <mxGeometry relative="1" as="geometry">
            <mxPoint x="-935" y="-270" as="targetPoint" />
          </mxGeometry>
        </mxCell>
        <mxCell id="nNn-SHrqSjIZFw0SR9sd-169" value="updated_at" style="ellipse;whiteSpace=wrap;html=1;" vertex="1" parent="1">
          <mxGeometry x="-1185" y="-350" width="110" height="50" as="geometry" />
        </mxCell>
        <mxCell id="nNn-SHrqSjIZFw0SR9sd-170" value="" style="endArrow=none;html=1;rounded=0;" edge="1" parent="1">
          <mxGeometry relative="1" as="geometry">
            <mxPoint x="36.879999999999995" y="204.5" as="sourcePoint" />
            <mxPoint x="106.88" y="204.5" as="targetPoint" />
          </mxGeometry>
        </mxCell>
      </root>
    </mxGraphModel>
  </diagram>
</mxfile>
